<svg width="68" height="15" viewBox="0 0 68 15" fill="none" xmlns="http://www.w3.org/2000/svg">
<path d="M0.779605 14.5V0.399999H5.8996C7.51294 0.399999 8.87294 0.679999 9.97961 1.24C11.0996 1.78667 11.9463 2.58667 12.5196 3.64C13.0929 4.68 13.3796 5.94667 13.3796 7.44C13.3796 8.92 13.0929 10.1867 12.5196 11.24C11.9463 12.2933 11.0996 13.1 9.97961 13.66C8.87294 14.22 7.51294 14.5 5.8996 14.5H0.779605ZM3.3596 12.36H5.7396C7.44627 12.36 8.71294 11.9533 9.53961 11.14C10.3663 10.3267 10.7796 9.09333 10.7796 7.44C10.7796 5.77333 10.3663 4.54 9.53961 3.74C8.71294 2.92667 7.44627 2.52 5.7396 2.52H3.3596V12.36ZM20.374 14.7C19.334 14.7 18.434 14.4867 17.674 14.06C16.914 13.6333 16.3206 13.0267 15.894 12.24C15.4806 11.4533 15.274 10.52 15.274 9.44C15.274 8.36 15.4806 7.43333 15.894 6.66C16.3206 5.87333 16.914 5.26667 17.674 4.84C18.434 4.41333 19.334 4.2 20.374 4.2C21.414 4.2 22.314 4.41333 23.074 4.84C23.8473 5.26667 24.4406 5.87333 24.854 6.66C25.2806 7.43333 25.494 8.36 25.494 9.44C25.494 10.52 25.2806 11.4533 24.854 12.24C24.4406 13.0267 23.8473 13.6333 23.074 14.06C22.314 14.4867 21.414 14.7 20.374 14.7ZM20.374 12.78C21.1606 12.78 21.7873 12.5067 22.254 11.96C22.7206 11.4 22.954 10.56 22.954 9.44C22.954 8.32 22.7206 7.48667 22.254 6.94C21.7873 6.39333 21.1606 6.12 20.374 6.12C19.5873 6.12 18.9606 6.39333 18.494 6.94C18.0273 7.48667 17.794 8.32 17.794 9.44C17.794 10.56 18.0273 11.4 18.494 11.96C18.9606 12.5067 19.5873 12.78 20.374 12.78ZM32.2899 14.7C31.2499 14.7 30.3366 14.4867 29.5499 14.06C28.7766 13.6333 28.1766 13.0267 27.7499 12.24C27.3233 11.44 27.1099 10.4933 27.1099 9.4C27.1099 8.30667 27.3233 7.37333 27.7499 6.6C28.1899 5.82667 28.7966 5.23333 29.5699 4.82C30.3433 4.40667 31.2499 4.2 32.2899 4.2C32.9566 4.2 33.6033 4.30667 34.2299 4.52C34.8699 4.72 35.3899 5.01333 35.7899 5.4L35.0299 7.14C34.6699 6.80667 34.2633 6.56 33.8099 6.4C33.3699 6.22667 32.9366 6.14 32.5099 6.14C31.6166 6.14 30.9166 6.42 30.4099 6.98C29.9166 7.54 29.6699 8.35333 29.6699 9.42C29.6699 10.4867 29.9166 11.3067 30.4099 11.88C30.9166 12.4533 31.6166 12.74 32.5099 12.74C32.9233 12.74 33.3499 12.66 33.7899 12.5C34.2433 12.34 34.6566 12.0933 35.0299 11.76L35.7899 13.48C35.3766 13.8667 34.8499 14.1667 34.2099 14.38C33.5833 14.5933 32.9433 14.7 32.2899 14.7ZM41.368 14.7C40.128 14.7 39.2014 14.36 38.588 13.68C37.9747 13 37.668 11.96 37.668 10.56V4.4H40.168V10.54C40.168 11.2867 40.3214 11.84 40.628 12.2C40.9347 12.5467 41.4014 12.72 42.028 12.72C42.7347 12.72 43.308 12.48 43.748 12C44.2014 11.52 44.428 10.8867 44.428 10.1V4.4H46.928V14.5H44.488V12.44H44.768C44.4747 13.16 44.028 13.72 43.428 14.12C42.8414 14.5067 42.1547 14.7 41.368 14.7ZM48.2821 14.5L54.6621 0.399999H56.8221L63.2821 14.5H60.6621L58.9421 10.54L59.9821 11.24H51.5221L52.6021 10.54L50.8821 14.5H48.2821ZM55.7221 3.16L52.9021 9.84L52.3821 9.22H59.1021L58.6821 9.84L55.8021 3.16H55.7221ZM64.8421 14.5V0.399999H67.4221V14.5H64.8421Z" fill="url(#paint0_linear_449_16603)"/>
<defs>
<linearGradient id="paint0_linear_449_16603" x1="34.2196" y1="-11.5" x2="34.2196" y2="24.5" gradientUnits="userSpaceOnUse">
<stop stopColor="#58D5FF"/>
<stop offset="1" stopColor="#2875D0"/>
</linearGradient>
</defs>
</svg>
