<svg width="51" height="31" viewBox="0 0 51 31" fill="none" xmlns="http://www.w3.org/2000/svg">
<g id="Vector">
<path fill-rule="evenodd" clip-rule="evenodd" d="M36.1571 11.8514H14.0625C12.6631 11.8514 11.5287 12.9858 11.5287 14.3851V24.9257C11.5287 26.325 12.6631 27.4595 14.0625 27.4595H36.1571C37.5565 27.4595 38.6909 26.325 38.6909 24.9257V14.3851C38.6909 12.9858 37.5565 11.8514 36.1571 11.8514ZM14.0625 8.81081C10.9839 8.81081 8.48818 11.3065 8.48818 14.3851V24.9257C8.48818 28.0043 10.9839 30.5 14.0625 30.5H36.1571C39.2357 30.5 41.7314 28.0043 41.7314 24.9257V14.3851C41.7314 11.3065 39.2357 8.81081 36.1571 8.81081H14.0625Z" fill="url(#paint0_linear_449_16602)"/>
<path d="M21.3598 20.2128C21.3598 22.032 19.8851 23.5068 18.0659 23.5068C16.2467 23.5068 14.772 22.032 14.772 20.2128C14.772 18.3937 16.2467 16.9189 18.0659 16.9189C19.8851 16.9189 21.3598 18.3937 21.3598 20.2128Z" fill="url(#paint1_linear_449_16602)"/>
<path d="M35.3463 20.2128C35.3463 22.032 33.8715 23.5068 32.0524 23.5068C30.2332 23.5068 28.7584 22.032 28.7584 20.2128C28.7584 18.3937 30.2332 16.9189 32.0524 16.9189C33.8715 16.9189 35.3463 18.3937 35.3463 20.2128Z" fill="url(#paint2_linear_449_16602)"/>
<path d="M3.84628 26.2432C3.14696 26.2432 2.6098 26.0456 2.2348 25.6503C1.8598 25.2652 1.6723 24.728 1.6723 24.0389V21.7128C1.6723 21.3176 1.60642 21.0338 1.47466 20.8615C1.35304 20.6892 1.11993 20.5878 0.775338 20.5574L0 20.4966V18.5659L0.775338 18.4899C1.11993 18.4595 1.35304 18.3632 1.47466 18.201C1.60642 18.0287 1.6723 17.7399 1.6723 17.3345V14.9932C1.6723 14.2939 1.8598 13.7517 2.2348 13.3666C2.6098 12.9814 3.14696 12.7889 3.84628 12.7889H5.83784V14.7804H4.97128C4.74831 14.7804 4.58615 14.8361 4.4848 14.9476C4.38345 15.049 4.33277 15.2162 4.33277 15.4493V17.6689C4.33277 17.9932 4.25676 18.3024 4.10473 18.5963C3.9527 18.8902 3.75507 19.1284 3.51182 19.3108C3.27872 19.4831 3.0152 19.5693 2.72128 19.5693V19.5084C3.0152 19.5084 3.27872 19.5946 3.51182 19.7669C3.75507 19.9392 3.9527 20.1672 4.10473 20.451C4.25676 20.7348 4.33277 21.0439 4.33277 21.3784V23.5828C4.33277 23.8057 4.38345 23.973 4.4848 24.0845C4.58615 24.1959 4.74831 24.2517 4.97128 24.2517H5.83784V26.2432H3.84628Z" fill="url(#paint3_linear_449_16602)"/>
<path d="M46.3733 26.2432C47.0726 26.2432 47.6098 26.0456 47.9848 25.6503C48.3598 25.2652 48.5473 24.728 48.5473 24.0389V21.7128C48.5473 21.3176 48.6132 21.0338 48.7449 20.8615C48.8666 20.6892 49.0997 20.5878 49.4443 20.5574L50.2196 20.4966V18.5659L49.4443 18.4899C49.0997 18.4595 48.8666 18.3632 48.7449 18.201C48.6132 18.0287 48.5473 17.7399 48.5473 17.3345V14.9932C48.5473 14.2939 48.3598 13.7517 47.9848 13.3666C47.6098 12.9814 47.0726 12.7889 46.3733 12.7889H44.3818V14.7804H45.2483C45.4713 14.7804 45.6334 14.8361 45.7348 14.9476C45.8362 15.049 45.8868 15.2162 45.8868 15.4493V17.6689C45.8868 17.9932 45.9628 18.3024 46.1149 18.5963C46.2669 18.8902 46.4645 19.1284 46.7078 19.3108C46.9409 19.4831 47.2044 19.5693 47.4983 19.5693V19.5084C47.2044 19.5084 46.9409 19.5946 46.7078 19.7669C46.4645 19.9392 46.2669 20.1672 46.1149 20.451C45.9628 20.7348 45.8868 21.0439 45.8868 21.3784V23.5828C45.8868 23.8057 45.8362 23.973 45.7348 24.0845C45.6334 24.1959 45.4713 24.2517 45.2483 24.2517H44.3818V26.2432H46.3733Z" fill="url(#paint4_linear_449_16602)"/>
<path d="M28.9612 23.3896C28.9612 23.6011 28.8752 23.8051 28.7156 23.9438C28.4189 24.2017 28.213 24.331 27.8603 24.5298C27.425 24.7787 26.9772 24.9575 26.5169 25.0664C26.0567 25.1753 25.5747 25.2297 25.0709 25.2297C24.5609 25.2297 24.0789 25.1753 23.6249 25.0664C23.1647 24.9575 22.7169 24.7787 22.2815 24.5298C21.9307 24.3321 21.7742 24.2031 21.5002 23.9479C21.3455 23.8038 21.2584 23.6011 21.2584 23.3896C21.2584 22.8059 21.8905 22.4358 22.4453 22.6173C22.636 22.6797 22.8342 22.7365 23.0652 22.8033C23.7307 22.99 24.3992 23.0833 25.0709 23.0833C25.7426 23.0833 26.4143 22.99 27.086 22.8033C27.3324 22.7313 27.5519 22.6711 27.7682 22.6028C28.3249 22.4272 28.9612 22.8059 28.9612 23.3896Z" fill="url(#paint5_linear_449_16602)"/>
<path d="M26.4274 7.13103C27.6768 6.61361 28.5557 5.38242 28.5557 3.94595C28.5557 2.0428 27.0129 0.5 25.1098 0.5C23.2067 0.5 21.6639 2.0428 21.6639 3.94595C21.6639 5.34326 22.4955 6.54633 23.6909 7.08713V8.81081H26.4274V7.13103Z" fill="url(#paint6_linear_449_16602)"/>
</g>
<defs>
<linearGradient id="paint0_linear_449_16602" x1="25.1098" y1="0.5" x2="25.1098" y2="30.5" gradientUnits="userSpaceOnUse">
<stop stopColor="#58D5FF"/>
<stop offset="1" stopColor="#2875D0"/>
</linearGradient>
<linearGradient id="paint1_linear_449_16602" x1="25.1098" y1="0.5" x2="25.1098" y2="30.5" gradientUnits="userSpaceOnUse">
<stop stopColor="#58D5FF"/>
<stop offset="1" stopColor="#2875D0"/>
</linearGradient>
<linearGradient id="paint2_linear_449_16602" x1="25.1098" y1="0.5" x2="25.1098" y2="30.5" gradientUnits="userSpaceOnUse">
<stop stopColor="#58D5FF"/>
<stop offset="1" stopColor="#2875D0"/>
</linearGradient>
<linearGradient id="paint3_linear_449_16602" x1="25.1098" y1="0.5" x2="25.1098" y2="30.5" gradientUnits="userSpaceOnUse">
<stop stopColor="#58D5FF"/>
<stop offset="1" stopColor="#2875D0"/>
</linearGradient>
<linearGradient id="paint4_linear_449_16602" x1="25.1098" y1="0.5" x2="25.1098" y2="30.5" gradientUnits="userSpaceOnUse">
<stop stopColor="#58D5FF"/>
<stop offset="1" stopColor="#2875D0"/>
</linearGradient>
<linearGradient id="paint5_linear_449_16602" x1="25.1098" y1="0.5" x2="25.1098" y2="30.5" gradientUnits="userSpaceOnUse">
<stop stopColor="#58D5FF"/>
<stop offset="1" stopColor="#2875D0"/>
</linearGradient>
<linearGradient id="paint6_linear_449_16602" x1="25.1098" y1="0.5" x2="25.1098" y2="30.5" gradientUnits="userSpaceOnUse">
<stop stopColor="#58D5FF"/>
<stop offset="1" stopColor="#2875D0"/>
</linearGradient>
</defs>
</svg>
